<svg width="302" height="75" viewBox="0 0 302 75" fill="none" xmlns="http://www.w3.org/2000/svg">
<path d="M9.84375 38.8125C9.84375 37.3125 9.73958 30.4479 9.53125 18.2188C9.46875 17.7396 9.21875 17.3333 8.78125 17C8.36458 16.6458 7.75 16.375 6.9375 16.1875C6.125 16 5.45833 15.8646 4.9375 15.7812C4.4375 15.6979 3.72917 15.6146 2.8125 15.5312C2.72917 15.1562 2.6875 14.8958 2.6875 14.75C2.6875 14.625 2.72917 14.3958 2.8125 14.0625C3.35417 14.0833 4.64583 14.1354 6.6875 14.2188C8.72917 14.2812 10.3021 14.3125 11.4062 14.3125C12.3438 14.3125 14.1146 14.2708 16.7188 14.1875C19.3229 14.1042 21.1979 14.0625 22.3438 14.0625C27.6771 14.0625 31.75 15.3021 34.5625 17.7812C37.375 20.2604 38.7812 23.5625 38.7812 27.6875C38.7812 31.6042 37.5208 34.8021 35 37.2812C32.4792 39.7604 28.8958 41 24.25 41C21.4583 41 18.9479 40.4167 16.7188 39.25C16.7188 44.3333 16.7812 49.8229 16.9062 55.7188C16.9271 56.2604 17.1667 56.7292 17.625 57.125C18.0833 57.5 18.7396 57.7917 19.5938 58C20.4688 58.2083 21.1979 58.3646 21.7812 58.4688C22.3854 58.5521 23.1667 58.6354 24.125 58.7188C24.2083 59.1354 24.25 59.4167 24.25 59.5625C24.25 59.7292 24.2083 59.9375 24.125 60.1875C20.5833 60.0625 16.9583 60 13.25 60C9.5 60 5.875 60.0625 2.375 60.1875C2.29167 59.9375 2.25 59.7292 2.25 59.5625C2.25 59.2083 2.29167 58.9271 2.375 58.7188C3.33333 58.6354 4.10417 58.5521 4.6875 58.4688C5.29167 58.3646 6.02083 58.2083 6.875 58C7.75 57.7917 8.41667 57.5 8.875 57.125C9.33333 56.7292 9.57292 56.2604 9.59375 55.7188C9.76042 50.3646 9.84375 44.7292 9.84375 38.8125ZM16.9062 16.2188C16.7812 23.7188 16.7188 30.6979 16.7188 37.1562C18.4271 37.9271 20.125 38.3125 21.8125 38.3125C24.75 38.3125 26.9583 37.3646 28.4375 35.4688C29.9167 33.5729 30.6562 30.9583 30.6562 27.625C30.6562 19.9375 26.8542 16.0938 19.25 16.0938C18.7708 16.0938 17.9896 16.1354 16.9062 16.2188ZM93.25 58.7188C93.375 58.9688 93.4375 59.2292 93.4375 59.5C93.4375 59.7083 93.375 59.9375 93.25 60.1875C90.5 60.0625 87.8333 60 85.25 60C82.7083 60 80.0625 60.0625 77.3125 60.1875C77.2292 59.8542 77.1875 59.625 77.1875 59.5C77.1875 59.3958 77.2292 59.1354 77.3125 58.7188C78 58.6354 78.5625 58.5521 79 58.4688C79.4375 58.3646 79.9792 58.2083 80.625 58C81.2708 57.7917 81.7604 57.5 82.0938 57.125C82.4271 56.7292 82.6042 56.2604 82.625 55.7188C82.7083 53.6562 82.75 51.1562 82.75 48.2188C82.75 47.2396 82.7396 45.5729 82.7188 43.2188C82.6979 40.8646 82.6875 38.8021 82.6875 37.0312C81.5 36.3021 79.5 35.875 76.6875 35.75C76.6042 35.4167 76.5625 35.1562 76.5625 34.9688C76.5625 34.8438 76.6042 34.6146 76.6875 34.2812C80.7292 33.8646 84.25 33.0104 87.25 31.7188C87.7708 31.9271 88.1354 32.1979 88.3438 32.5312V37.4688C90.3646 35.6979 92.3021 34.2812 94.1562 33.2188C96.0104 32.1354 97.8854 31.5938 99.7812 31.5938C102.156 31.5938 103.833 32.2604 104.812 33.5938C105.812 34.9271 106.333 37.0104 106.375 39.8438L106.688 55.7188C106.708 56.2604 106.865 56.7292 107.156 57.125C107.469 57.5 107.906 57.7917 108.469 58C109.052 58.2083 109.531 58.3646 109.906 58.4688C110.281 58.5521 110.771 58.6354 111.375 58.7188C111.458 59.1354 111.5 59.4167 111.5 59.5625C111.5 59.7292 111.458 59.9375 111.375 60.1875C108.688 60.0625 106.208 60 103.938 60C101.729 60 99.2812 60.0625 96.5938 60.1875C96.5104 59.8542 96.4688 59.6042 96.4688 59.4375C96.4688 59.2917 96.5104 59.0521 96.5938 58.7188C97.1354 58.6354 97.5833 58.5521 97.9375 58.4688C98.3125 58.3646 98.7292 58.2083 99.1875 58C99.6667 57.7917 100.021 57.5 100.25 57.125C100.5 56.7292 100.625 56.2604 100.625 55.7188L100.688 40.875C100.688 37.1042 99.5521 35.2188 97.2812 35.2188C95.1562 35.2188 92.1771 36.6354 88.3438 39.4688C88.3438 45.5312 88.4271 50.9479 88.5938 55.7188C88.6146 56.2604 88.7708 56.7292 89.0625 57.125C89.375 57.5 89.8125 57.7917 90.375 58C90.9375 58.2083 91.4062 58.3646 91.7812 58.4688C92.1562 58.5521 92.6458 58.6354 93.25 58.7188ZM124.375 26.2812C124.583 26.1979 124.823 26.1562 125.094 26.1562C125.365 26.1562 125.646 26.1979 125.938 26.2812V33.125H135.406C135.531 33.4375 135.594 33.8229 135.594 34.2812C135.594 34.6771 135.531 35.0417 135.406 35.375H125.938V52.0625C125.938 55.3542 127.448 57 130.469 57C131.615 57 132.594 56.7812 133.406 56.3438C134.24 55.9062 135.156 55.25 136.156 54.375C136.677 54.4375 137.021 54.6875 137.188 55.125C136.271 56.7708 134.917 58.1458 133.125 59.25C131.333 60.3542 129.365 60.9062 127.219 60.9062C122.177 60.9062 119.656 57.8542 119.656 51.75V35.375H115.812C115.729 35 115.688 34.7604 115.688 34.6562C115.688 34.6354 115.729 34.3958 115.812 33.9375C116.812 33.4375 117.573 33.0312 118.094 32.7188C118.635 32.3854 119.312 31.9167 120.125 31.3125C120.958 30.7083 121.708 30 122.375 29.1875C123.062 28.3542 123.729 27.3854 124.375 26.2812ZM140.25 15.0625C144.208 14.6875 147.719 13.8333 150.781 12.5C151.344 12.7292 151.708 13.0104 151.875 13.3438V37.3438C153.938 35.5938 155.875 34.1979 157.688 33.1562C159.5 32.1146 161.344 31.5938 163.219 31.5938C165.573 31.5938 167.25 32.2604 168.25 33.5938C169.25 34.9271 169.771 37.0104 169.812 39.8438L170.062 55.7188C170.083 56.2604 170.24 56.7292 170.531 57.125C170.844 57.5 171.281 57.7917 171.844 58C172.406 58.2083 172.875 58.3646 173.25 58.4688C173.625 58.5521 174.115 58.6354 174.719 58.7188C174.823 59.2396 174.875 59.5208 174.875 59.5625C174.875 59.6667 174.823 59.875 174.719 60.1875C172.031 60.0625 169.583 60 167.375 60C165.146 60 162.688 60.0625 160 60.1875C159.917 59.8542 159.875 59.6042 159.875 59.4375C159.875 59.2917 159.917 59.0521 160 58.7188C160.542 58.6354 160.99 58.5521 161.344 58.4688C161.719 58.3646 162.135 58.2083 162.594 58C163.073 57.7917 163.427 57.5 163.656 57.125C163.906 56.7292 164.031 56.2604 164.031 55.7188L164.094 40.875C164.094 37.1042 162.969 35.2188 160.719 35.2188C158.615 35.2188 155.667 36.5833 151.875 39.3125C151.958 47.9792 152.042 53.4479 152.125 55.7188C152.146 56.1562 152.271 56.5521 152.5 56.9062C152.75 57.2396 153.021 57.5104 153.312 57.7188C153.604 57.9062 154 58.0833 154.5 58.25C155 58.3958 155.385 58.5 155.656 58.5625C155.948 58.6042 156.333 58.6562 156.812 58.7188C156.938 58.9688 157 59.2292 157 59.5C157 59.7708 156.938 60 156.812 60.1875C154.062 60.0625 151.396 60 148.812 60C146.271 60 143.625 60.0625 140.875 60.1875C140.792 59.8542 140.75 59.625 140.75 59.5C140.75 59.3958 140.792 59.1354 140.875 58.7188C141.562 58.6354 142.115 58.5521 142.531 58.4688C142.969 58.3646 143.51 58.2083 144.156 58C144.823 57.7917 145.323 57.5 145.656 57.125C145.99 56.7292 146.167 56.2604 146.188 55.7188C146.271 53.6562 146.312 49.0417 146.312 41.875C146.312 38.5625 146.302 34.0521 146.281 28.3438C146.26 22.6354 146.25 19.125 146.25 17.8125C145.062 17.125 143.062 16.6979 140.25 16.5312C140.146 16.2604 140.094 16.0104 140.094 15.7812C140.094 15.5729 140.146 15.3333 140.25 15.0625ZM203.375 43.4375H186.344C186.26 44.6875 186.219 45.7917 186.219 46.75C186.281 49.8542 187.188 52.3438 188.938 54.2188C190.688 56.0729 193.031 57 195.969 57C196.76 57 197.5 56.9167 198.188 56.75C198.875 56.5625 199.438 56.3542 199.875 56.125C200.333 55.8958 200.802 55.5625 201.281 55.125C201.76 54.6875 202.104 54.3438 202.312 54.0938C202.542 53.8229 202.844 53.4271 203.219 52.9062C203.594 52.3646 203.844 52.0208 203.969 51.875C204.469 51.9792 204.875 52.2083 205.188 52.5625C204.146 55.3542 202.531 57.4479 200.344 58.8438C198.156 60.2188 195.781 60.9062 193.219 60.9062C191.948 60.9062 190.708 60.7396 189.5 60.4062C188.312 60.0938 187.156 59.5729 186.031 58.8438C184.906 58.1146 183.927 57.2188 183.094 56.1562C182.26 55.0729 181.594 53.7292 181.094 52.125C180.594 50.5 180.344 48.7083 180.344 46.75C180.344 42.3542 181.688 38.7292 184.375 35.875C187.062 33.0208 190.365 31.5938 194.281 31.5938C196.01 31.5938 197.51 31.8438 198.781 32.3438C200.073 32.8229 201.073 33.4792 201.781 34.3125C202.51 35.1458 203.042 36.0625 203.375 37.0625C203.729 38.0417 203.906 39.0938 203.906 40.2188C203.906 41.2604 203.729 42.3333 203.375 43.4375ZM193.531 33.625C192.094 33.625 190.729 34.2604 189.438 35.5312C188.167 36.8021 187.25 38.7292 186.688 41.3125H197.938C198.146 40.5208 198.25 39.8333 198.25 39.25C198.25 37.625 197.875 36.2812 197.125 35.2188C196.375 34.1562 195.177 33.625 193.531 33.625ZM190.75 25L198.312 15.5938C199.167 14.6146 200.125 14.125 201.188 14.125C201.979 14.125 202.625 14.375 203.125 14.875C203.625 15.3542 203.875 16 203.875 16.8125C203.875 17.6667 203.49 18.4271 202.719 19.0938C202.427 19.3646 201.688 19.875 200.5 20.625L191.656 26.1562L190.75 25ZM225.031 31.5938C227.094 31.5938 228.948 31.9583 230.594 32.6875C232.26 33.4167 233.677 34.4271 234.844 35.7188C236.01 37.0104 236.906 38.5625 237.531 40.375C238.156 42.1667 238.469 44.125 238.469 46.25C238.469 50.5833 237.25 54.1042 234.812 56.8125C232.396 59.5417 229.135 60.9062 225.031 60.9062C222.99 60.9062 221.135 60.5521 219.469 59.8438C217.823 59.1146 216.417 58.1042 215.25 56.8125C214.083 55.5 213.177 53.9479 212.531 52.1562C211.906 50.3646 211.594 48.3958 211.594 46.25C211.594 44.125 211.906 42.1667 212.531 40.375C213.156 38.5625 214.042 37.0104 215.188 35.7188C216.354 34.4271 217.771 33.4167 219.438 32.6875C221.104 31.9583 222.969 31.5938 225.031 31.5938ZM225.031 33.625C222.906 33.625 221.208 34.6562 219.938 36.7188C218.688 38.7812 218.062 41.9583 218.062 46.25C218.062 50.5417 218.688 53.7188 219.938 55.7812C221.208 57.8229 222.906 58.8438 225.031 58.8438C227.156 58.8438 228.844 57.8125 230.094 55.75C231.365 53.6875 232 50.5208 232 46.25C232 44.1042 231.833 42.2396 231.5 40.6562C231.167 39.0729 230.698 37.7604 230.094 36.7188C229.49 35.6771 228.76 34.9062 227.906 34.4062C227.052 33.8854 226.094 33.625 225.031 33.625ZM261.25 58.7188C261.375 58.9688 261.438 59.2292 261.438 59.5C261.438 59.7083 261.375 59.9375 261.25 60.1875C258.5 60.0625 255.833 60 253.25 60C250.708 60 248.062 60.0625 245.312 60.1875C245.229 59.8542 245.188 59.625 245.188 59.5C245.188 59.3958 245.229 59.1354 245.312 58.7188C246 58.6354 246.562 58.5521 247 58.4688C247.438 58.3646 247.979 58.2083 248.625 58C249.271 57.7917 249.76 57.5 250.094 57.125C250.427 56.7292 250.604 56.2604 250.625 55.7188C250.708 53.6562 250.75 51.1562 250.75 48.2188C250.75 47.2396 250.74 45.5729 250.719 43.2188C250.698 40.8646 250.688 38.8021 250.688 37.0312C249.5 36.3021 247.5 35.875 244.688 35.75C244.604 35.4167 244.562 35.1562 244.562 34.9688C244.562 34.8438 244.604 34.6146 244.688 34.2812C248.729 33.8646 252.25 33.0104 255.25 31.7188C255.771 31.9271 256.135 32.1979 256.344 32.5312V37.4688C258.365 35.6979 260.302 34.2812 262.156 33.2188C264.01 32.1354 265.885 31.5938 267.781 31.5938C270.156 31.5938 271.833 32.2604 272.812 33.5938C273.812 34.9271 274.333 37.0104 274.375 39.8438L274.688 55.7188C274.708 56.2604 274.865 56.7292 275.156 57.125C275.469 57.5 275.906 57.7917 276.469 58C277.052 58.2083 277.531 58.3646 277.906 58.4688C278.281 58.5521 278.771 58.6354 279.375 58.7188C279.458 59.1354 279.5 59.4167 279.5 59.5625C279.5 59.7292 279.458 59.9375 279.375 60.1875C276.688 60.0625 274.208 60 271.938 60C269.729 60 267.281 60.0625 264.594 60.1875C264.51 59.8542 264.469 59.6042 264.469 59.4375C264.469 59.2917 264.51 59.0521 264.594 58.7188C265.135 58.6354 265.583 58.5521 265.938 58.4688C266.312 58.3646 266.729 58.2083 267.188 58C267.667 57.7917 268.021 57.5 268.25 57.125C268.5 56.7292 268.625 56.2604 268.625 55.7188L268.688 40.875C268.688 37.1042 267.552 35.2188 265.281 35.2188C263.156 35.2188 260.177 36.6354 256.344 39.4688C256.344 45.5312 256.427 50.9479 256.594 55.7188C256.615 56.2604 256.771 56.7292 257.062 57.125C257.375 57.5 257.812 57.7917 258.375 58C258.938 58.2083 259.406 58.3646 259.781 58.4688C260.156 58.5521 260.646 58.6354 261.25 58.7188Z" fill="#2C2C2C"/>
<g filter="url(#filter0_i_14_213)">
<path d="M53 15L71.1865 60H34.8135L53 15Z" fill="white"/>
</g>
<path d="M53 35L59.9282 50.75H46.0718L53 35Z" fill="#2C3531"/>
<defs>
<filter id="filter0_i_14_213" x="34.8135" y="15" width="36.373" height="49" filterUnits="userSpaceOnUse" color-interpolation-filters="sRGB">
<feFlood flood-opacity="0" result="BackgroundImageFix"/>
<feBlend mode="normal" in="SourceGraphic" in2="BackgroundImageFix" result="shape"/>
<feColorMatrix in="SourceAlpha" type="matrix" values="0 0 0 0 0 0 0 0 0 0 0 0 0 0 0 0 0 0 127 0" result="hardAlpha"/>
<feOffset dy="4"/>
<feGaussianBlur stdDeviation="2"/>
<feComposite in2="hardAlpha" operator="arithmetic" k2="-1" k3="1"/>
<feColorMatrix type="matrix" values="0 0 0 0 0 0 0 0 0 0 0 0 0 0 0 0 0 0 0.25 0"/>
<feBlend mode="normal" in2="shape" result="effect1_innerShadow_14_213"/>
</filter>
</defs>
</svg>
